	 <svg xmlns="http://www.w3.org/2000/svg" xmlns:xlink="http://www.w3.org/1999/xlink">
		  <symbol viewBox="0 0 50 90" id="facebook">
				<title id="facebookTitle">Facebook</title>
				<path fill="currentColor" d="M50 15.6H35.7c-1.7 0-3.6 2.2-3.6 5.2v10.3H50v14.7H32.1V90H15.3V45.9H0V31.2h15.3v-8.7C15.3 10.1 23.9 0 35.7 0H50v15.6z" />
		  </symbol>
		  <symbol viewBox="0 0 448 512" id="instagram">
		  		<title id="instagramTitle">Instagram</title>
				<path fill="currentColor"  d="M224.1 141c-63.6 0-114.9 51.3-114.9 114.9s51.3 114.9 114.9 114.9S339 319.5 339 255.9 287.7 141 224.1 141zm0 189.6c-41.1 0-74.7-33.5-74.7-74.7s33.5-74.7 74.7-74.7 74.7 33.5 74.7 74.7-33.6 74.7-74.7 74.7zm146.4-194.3c0 14.9-12 26.8-26.8 26.8-14.9 0-26.8-12-26.8-26.8s12-26.8 26.8-26.8 26.8 12 26.8 26.8zm76.1 27.2c-1.7-35.9-9.9-67.7-36.2-93.9-26.2-26.2-58-34.4-93.9-36.2-37-2.1-147.9-2.1-184.9 0-35.8 1.7-67.6 9.9-93.9 36.1s-34.4 58-36.2 93.9c-2.1 37-2.1 147.9 0 184.9 1.7 35.9 9.9 67.7 36.2 93.9s58 34.4 93.9 36.2c37 2.1 147.9 2.1 184.9 0 35.9-1.7 67.7-9.9 93.9-36.2 26.2-26.2 34.4-58 36.2-93.9 2.1-37 2.1-147.8 0-184.8zM398.8 388c-7.8 19.6-22.9 34.7-42.6 42.6-29.5 11.7-99.5 9-132.1 9s-102.7 2.6-132.1-9c-19.6-7.8-34.7-22.9-42.6-42.6-11.7-29.5-9-99.5-9-132.1s-2.6-102.7 9-132.1c7.8-19.6 22.9-34.7 42.6-42.6 29.5-11.7 99.5-9 132.1-9s102.7-2.6 132.1 9c19.6 7.8 34.7 22.9 42.6 42.6 11.7 29.5 9 99.5 9 132.1s2.7 102.7-9 132.1z"/>
		  </symbol>
		  <symbol viewBox="0 0 1200 1227" id="twitter">
		  	<title id="twitterTitle">Twitter</title>		
		  	<path fill="currentColor" d="M714.163 519.284L1160.89 0H1055.03L667.137 450.887L357.328 0H0L468.492 681.821L0 1226.37H105.866L515.491 750.218L842.672 1226.37H1200L714.137 519.284H714.163ZM569.165 687.828L521.697 619.934L144.011 79.6944H306.615L611.412 515.685L658.88 583.579L1055.08 1150.3H892.476L569.165 687.854V687.828Z" />
		  </symbol>
		  <symbol viewBox="0 0 61 42.9" id="youtube">
		  		<title id="youtubeTitle">YouTube</title>
				<path fill="currentColor" d="M60.4 9.3s-.6-4.2-2.4-6.1C55.7.8 53.1.8 51.9.6 43.3 0 30.5 0 30.5 0S17.7 0 9.2.6C7.9.8 5.4.8 3 3.2 1.2 5 .6 9.3.6 9.3S0 14.2 0 19.1v4.6c0 4.9.6 9.9.6 9.9s.6 4.2 2.4 6.1c2.3 2.4 5.4 2.4 6.7 2.6 4.9.5 20.7.6 20.7.6s12.8 0 21.3-.6c1.2-.1 3.8-.2 6.1-2.6 1.8-1.9 2.4-6.1 2.4-6.1s.6-4.9.6-9.9v-4.6c.2-4.9-.4-9.8-.4-9.8zm-36.2 20V12.2l16.5 8.6-16.5 8.5z" />
		  </symbol>
		  <symbol viewBox="0 0 146 65.2" id="flickr">
		  		<title id="flickrTitle">Flickr</title>
				<circle fill="currentColor" cx="32.6" cy="32.6" r="32.6" />
				<circle fill="currentColor" cx="113.4" cy="32.6" r="32.6" />
		  </symbol>
		  <symbol viewBox="0 0 253.8 241" id="linkedin">
		  		<title id="linkedinTitle">LinkedIn</title>
				<path fill="currentColor" d="M191.16,74.56c-28.9,0-41.8,15.81-49,26.89V102h-.36a5.26,5.26,0,0,1,.36-.51V78.39H87.73c.72,15.24,0,162.61,0,162.61h54.4V150.16c0-4.84.35-9.69,1.8-13.17,3.93-9.71,12.86-19.78,27.92-19.78,19.66,0,27.55,14.91,27.55,36.78v87h54.4V147.76C253.8,97.8,226.95,74.56,191.16,74.56Z" />
				<rect fill="currentColor" x="3.22" y="78.39" width="54.42" height="162.61" />
				<path fill="currentColor" d="M30.77,0C12.17,0,0,12.14,0,28.08c0,15.61,11.82,28.1,30.07,28.1h.37c19,0,30.75-12.47,30.75-28.1C60.85,12.14,49.4,0,30.77,0Z" />
		  </symbol>
		  <symbol viewBox="0 0 90.42 90.42" id="feed">
		  	<title id="feedTitle">Feed</title>
				<desc id="feedDesc">News feed icon</desc>
				<path fill="currentColor" d="M73,90.42H90.42A90.51,90.51,0,0,0,0,0V17.34A73.13,73.13,0,0,1,73,90.42Z" />
				<path fill="currentColor" d="M42.28,90.42H59.69A59.76,59.76,0,0,0,0,30.72V48A42,42,0,0,1,29.9,60.45,42.1,42.1,0,0,1,42.28,90.42Z" />
				<path fill="currentColor" d="M12,90.31a12,12,0,1,0-12-12A12,12,0,0,0,12,90.31Z" />
		  </symbol>
      
	 </svg>